<?xml version="1.0" standalone="no"?>
<!DOCTYPE svg PUBLIC "-//W3C//DTD SVG 20010904//EN"
 "http://www.w3.org/TR/2001/REC-SVG-20010904/DTD/svg10.dtd">
<svg version="1.0" xmlns="http://www.w3.org/2000/svg"
 width="200.000000pt" height="200.000000pt" viewBox="0 0 200.000000 200.000000"
 preserveAspectRatio="xMidYMid meet">
<metadata>
Created by potrace 1.11, written by Peter Selinger 2001-2013
</metadata>
<g transform="translate(0.000000,200.000000) scale(0.100000,-0.100000)"
fill="#000000" stroke="none">
<path d="M0 1000 l0 -1000 1000 0 1000 0 0 1000 0 1000 -1000 0 -1000 0 0
-1000z m1461 575 c182 -19 318 -179 249 -292 -46 -76 -140 -90 -204 -29 -31
29 -36 39 -36 80 0 54 21 100 53 117 21 12 21 13 -13 25 -49 17 -138 17 -192
-1 -142 -49 -229 -257 -215 -515 17 -306 134 -453 338 -424 l64 9 3 183 2 182
-55 0 -55 0 0 40 0 40 215 0 215 0 0 -40 0 -40 -50 0 -50 0 -2 -192 -3 -193
-48 -23 c-91 -43 -163 -57 -312 -57 -164 0 -221 14 -314 76 -72 48 -131 131
-162 228 -29 92 -37 287 -15 391 36 171 149 331 279 395 70 35 168 56 227 49
14 -2 50 -6 81 -9z m-661 -55 c0 -38 -1 -40 -32 -40 -18 0 -43 -3 -55 -6 l-23
-6 0 -413 c0 -241 -5 -446 -11 -491 -21 -150 -70 -234 -170 -289 -48 -27 -63
-30 -139 -30 -63 0 -95 5 -123 19 -148 74 -112 287 46 273 90 -8 143 -98 103
-175 -17 -34 -8 -42 18 -17 33 33 36 89 36 606 l0 516 -37 7 c-21 3 -53 6 -70
6 -32 0 -33 2 -33 40 l0 40 245 0 245 0 0 -40z"/>
</g>
</svg>
