<?xml version="1.0" encoding="utf-8"?>
<!-- Generator: Adobe Illustrator 22.1.0, SVG Export Plug-In . SVG Version: 6.00 Build 0)  -->
<svg version="1.1" id="Capa_1" xmlns="http://www.w3.org/2000/svg" xmlns:xlink="http://www.w3.org/1999/xlink" x="0px" y="0px"
	 viewBox="0 0 1438.5 615.5" style="enable-background:new 0 0 1438.5 615.5;" xml:space="preserve">
<style type="text/css">
	.st0{fill:url(#SVGID_1_);}
	.st1{fill:url(#SVGID_2_);}
	.st2{fill:url(#SVGID_3_);}
	.st3{fill:url(#SVGID_4_);}
	.st4{fill:#FFFFFF;}
	.st5{fill:#232324;}
	.st6{fill:url(#SVGID_5_);}
</style>
<g>
	<linearGradient id="SVGID_1_" gradientUnits="userSpaceOnUse" x1="70.2803" y1="86.7822" x2="686.3367" y2="702.8387">
		<stop  offset="0" style="stop-color:#B9B9B9"/>
		<stop  offset="0.1767" style="stop-color:#C5C6CB"/>
		<stop  offset="0.9829" style="stop-color:#99989D"/>
	</linearGradient>
	<path class="st0" d="M776.1,588.1c-53.8-37.4-113.3-67.2-176.9-87.8c6-3.8,11.8-7.7,17.2-12.2c33.4-27.6,50.1-64.3,50.1-110.1
		c0-28.3-7.1-52.9-21.4-73.6c-9.7-14.1-22.9-25.9-39.4-35.2c-9.7-5.5-10.3-19-1.2-25.4c12.5-8.8,23.3-19.4,32.3-31.8
		c14.4-19.8,21.6-41.5,21.6-65.1c0-45.8-15.5-81.7-46.4-107.8C581.1,13,538.4,0,483.9,0c-31.4,0-60.1,6-86.2,18.1
		c-26.1,12-46.4,28.7-60.9,50.1c-11.4,16.8-18.4,35.4-20.8,55.7c-1.1,8.9,6,16.7,15,16.7h72.9c7.2,0,13.2-5.2,14.6-12.2
		c2.5-11.7,8.7-21.7,18.6-29.7c13.2-10.7,29.6-16.1,49.2-16.1c21.7,0,38.8,5.8,51.1,17.3c12.4,11.6,18.6,27.7,18.6,48.5
		c0,21.5-6.3,38.7-18.8,51.7c-12.5,13-31.7,19.5-57.7,19.5h-7.9c-22.1,0-40,17.9-40,40c0,22.1,17.9,40,40,40h7.6
		c56.6,0,85,25.7,85,77.2c0,21.2-6.9,38.3-20.7,51.1c-13.8,12.9-32.9,19.3-57.2,19.3c-21.2,0-39.1-6.1-53.6-18.4
		c-11.3-9.5-18.2-21.2-20.7-35.1c-1.3-7.1-7.3-12.4-14.5-12.4h-73.5c-8.7,0-15.5,7.5-14.7,16.2c2.7,27.9,12.4,52,29.1,72.3
		c-21.3,1.7-42.3,4.4-63,8v-460c0-10.8-10.7-18.3-20.8-14.6L99.5,59.5C93.8,61.5,90,66.9,90,73v54.9c0,10.1,9.8,17.3,19.4,14.3
		l56.9-17.7c1.7-0.5,3.4,0.7,3.4,2.5v377.8c-58.5,20.3-113.4,48.4-163.4,83.1c-13.7,9.5-3.7,31.1,12.5,26.9
		c118.9-31.2,243.7-47.9,372.4-47.9c128.7,0,253.5,16.7,372.4,47.9C779.8,619.2,789.8,597.6,776.1,588.1z"/>
	<g>
		<linearGradient id="SVGID_2_" gradientUnits="userSpaceOnUse" x1="916.7543" y1="292.6775" x2="1164.1055" y2="292.6775">
			<stop  offset="0" style="stop-color:#1F86AF"/>
			<stop  offset="0.9829" style="stop-color:#5BA8C7"/>
		</linearGradient>
		<path class="st1" d="M1038.7,169.2c-69.2,0-122,57.9-122,125c0,67.8,55.5,122,123.7,122c68.8,0,123.7-54.5,123.7-123.3
			C1164.1,225.4,1109.9,169.2,1038.7,169.2z M1040.1,374c-45,0-79.8-36.2-79.8-80.1c0-44.3,34.4-82.6,79.8-82.6
			c44.3,0,80.5,36.9,80.5,81.2C1120.6,338.2,1085.5,374,1040.1,374z"/>
		<linearGradient id="SVGID_3_" gradientUnits="userSpaceOnUse" x1="801.0666" y1="169.2609" x2="801.0666" y2="411.1508">
			<stop  offset="0" style="stop-color:#1F86AF"/>
			<stop  offset="0.9829" style="stop-color:#5BA8C7"/>
		</linearGradient>
		<path class="st2" d="M852,321V193.3c0-15.5,7.2-24.1,22.7-24.1c16.2,0,23.7,8.6,23.7,24.1v193c0,16.2-10.7,24.8-22.7,24.8
			c-7.2,0-14.1-2.1-21-11l-104.3-140v126.3c0,16.2-7.9,24.8-23.7,24.8c-15.1,0-23.1-8.6-23.1-24.8V194c0-16.2,10.7-24.8,22.7-24.8
			c7.2,0,14.1,2.1,21,11L852,321z"/>
		<linearGradient id="SVGID_4_" gradientUnits="userSpaceOnUse" x1="1295.7507" y1="169.2609" x2="1295.7507" y2="411.1508">
			<stop  offset="0" style="stop-color:#1F86AF"/>
			<stop  offset="0.9829" style="stop-color:#5BA8C7"/>
		</linearGradient>
		<path class="st3" d="M1236.9,329.6l32.7-138c3.4-15.1,14.8-22.4,26.8-22.4c11,0,22.7,7.2,26.2,22.4l32,138l38.9-143.1
			c3.1-11.7,12.4-17.2,22.4-17.2c12,0,22.7,9.3,22.7,22.4c0,2.4-0.3,4.8-1,7.2l-56.1,192.3c-4.1,13.8-16.5,20-27.5,20
			c-10,0-24.1-5.9-27.5-20.6l-30.6-127.7l-30.6,127.7c-3.4,14.1-16.2,20.6-27.2,20.6c-12.4,0-23.4-6.5-27.5-20.3l-56.4-192
			c-0.7-2.1-1-4.1-1-6.5c0-12,9.6-23.1,23.7-23.1c9.3,0,18.9,5.5,22,17.5L1236.9,329.6z"/>
		<path class="st4" d="M976.6,306.5l39.4,21c15.3,8.1,33.6,8.1,48.9,0l39.4-21c5.1-2.7,8.3-8,8.3-13.8l0,0c0-5.8-3.2-11.1-8.3-13.8
			l-39.4-21c-15.3-8.1-33.6-8.1-48.9,0l-39.4,21c-5.1,2.7-8.3,8-8.3,13.8v0C968.3,298.5,971.5,303.8,976.6,306.5z"/>
		
			<ellipse transform="matrix(0.7818 -0.6235 0.6235 0.7818 44.5242 712.5898)" class="st5" cx="1040.4" cy="292.7" rx="36.1" ry="36.1"/>
		<linearGradient id="SVGID_5_" gradientUnits="userSpaceOnUse" x1="1021.4264" y1="292.6775" x2="1066.5006" y2="292.6775">
			<stop  offset="0" style="stop-color:#1F86AF"/>
			<stop  offset="0.9829" style="stop-color:#5BA8C7"/>
		</linearGradient>
		<path class="st6" d="M1021.4,310.4v-35.5c0-3.6,3.8-5.9,7-4.3l35.5,17.9c3.5,1.8,3.5,6.8,0,8.6l-35.5,17.6
			C1025.2,316.3,1021.4,314,1021.4,310.4z"/>
	</g>
</g>
</svg>
