<svg xmlns="http://www.w3.org/2000/svg" preserveAspectRatio="xMinYMin meet" viewBox="0 0 1437.91 484.03"><defs><style>.cls-1{fill:#d2d2d2;}.cls-2{fill:#00ff97;}.cls-3{fill:#2d333f;}</style></defs><title>Recurso 10</title><g id="Capa_2" data-name="Capa 2"><g id="Capa_2-2" data-name="Capa 2"><path class="cls-1" d="M847.92,292.24c3,0,5-1.35,5-3.78v-.08c0-2.27-1.82-3.7-4.87-3.7h-6.22v7.56Zm-9.19-10.42h9.48a8.79,8.79,0,0,1,6.28,2.2,5.68,5.68,0,0,1,1.73,4.17v.11c0,3.44-2.26,5.49-5.49,6.22l6.59,8.51h-3.89l-6.15-8h-5.41v8h-3.14ZM865.67,293v-.12A18.83,18.83,0,1,0,828,293v.11a18.83,18.83,0,1,0,37.65-.11m-39.57.11V293a20.77,20.77,0,0,1,20.81-20.7,20.56,20.56,0,0,1,20.65,20.58V293a20.73,20.73,0,0,1-41.46.11"/><path class="cls-1" d="M491.9,480.3c1.74-7.75,3.32-14.89,5-22q17.49-76.37,35-152.72c2.07-9,4.17-18.07,6.18-27.12.43-1.92,1.24-2.72,3.4-2.71,22.77.1,45.54,0,68.3.14a60,60,0,0,1,25,5.38c15.78,7.31,25.34,22.69,23.58,40-1,10.19-3.47,20.26-5.7,30.29q-8.91,40.05-18.23,80a62.84,62.84,0,0,1-61.63,48.73H491.9Zm56.87-33.69c7.9-.56,15.22-.71,22.41-1.72a14.48,14.48,0,0,0,10.39-7.6,43.9,43.9,0,0,0,4.58-10.48c2.89-11.27,5.37-22.64,8-34,4.94-21.48,9.92-42.94,14.76-64.44,2.59-11.53-2.47-17.72-14.21-17.74-4,0-7.93.1-11.88,0-2.22-.08-3.06.64-3.58,2.91q-12.35,54.36-24.91,108.68C552.52,430,550.77,437.8,548.77,446.61Z"/><path class="cls-1" d="M453.64,352.5c1.86-8.14,3.71-16.16,5.51-24.2,2-8.8.09-13.9-6.22-17.11-7.16-3.62-16.33-2.31-21.16,3.58a22.91,22.91,0,0,0-4.56,8.91c-8,34.12-15.77,68.29-23.6,102.45-2,8.54.76,15.12,7.58,18.37,9.23,4.41,21.11-.73,23.67-10.58,2.48-9.51,4.48-19.15,6.63-28.75.38-1.72.84-2.85,3-2.84,15.18.08,30.36.07,45.54.09a5.29,5.29,0,0,1,1.09.36c-.93,4.4-1.67,8.93-2.87,13.32-2.85,10.46-5.28,21.09-9.05,31.22-7.13,19.17-21.46,30.38-41.47,34.15-18.69,3.53-37.41,3.8-55.81-1.69-14-4.19-24.48-12.71-28.61-27.32-2.4-8.49-1.28-17.17.61-25.57,8.16-36.4,16.4-72.79,25.06-109.08a87.58,87.58,0,0,1,8.4-21c6.19-11.42,16.31-18.49,28.81-21.54,20.48-5,41.08-5.19,61.46.58,12.68,3.59,23.06,10.52,28.6,23.09,3.88,8.79,4.17,18.05,2.32,27.32-1.62,8.09-3.74,16.07-5.59,24.12-.35,1.55-.75,2.63-2.76,2.62-15.18-.09-30.36-.07-45.54-.1C454.45,352.91,454.25,352.75,453.64,352.5Z"/><path class="cls-1" d="M641.63,480.3c1.84-8.14,3.5-15.62,5.21-23.09l40.29-175.53c1.35-5.89,1.36-5.89,7.25-5.89H807.63c-1.2,5.48-2.31,10.63-3.48,15.76s-2.67,10.09-3.47,15.21c-.53,3.43-2.09,4-5.19,4-21-.13-41.91-.06-62.87-.08-1.87,0-3.34-.09-3.9,2.5-3,13.92-6.23,27.8-9.37,41.69-.12.53-.16,1.09-.32,2.18h50.89c-.84,3.76-1.54,6.93-2.26,10.08-1.75,7.6-3.64,15.18-5.17,22.82-.48,2.4-1.53,2.79-3.64,2.78-15-.06-29.9,0-44.85-.08-2.63,0-3.61.7-4.21,3.39-6,26.81-12.23,53.57-18.25,80.37-.7,3.13-1.95,4.06-5.17,4-13.47-.2-27-.09-40.44-.09Z"/><polygon class="cls-2" points="98.77 48.48 168.54 48.48 178.72 4.15 58.2 4.15 0 257.79 120.86 257.79 131.11 213.11 61 213.11 75.63 149.34 131.24 149.34 141.49 104.65 85.88 104.65 98.77 48.48"/><path class="cls-2" d="M260.34,0c-39.55,0-70.9,25.26-79.87,64.34-5.63,24.53.26,45.3,19.59,69.32l18.75,25.68c10,12.52,16,23.47,13.06,36.25-1.59,6.93-7,23-22.73,23-4.23,0-7.32-1.16-9.42-3.55-3.87-4.4-4.91-13.18-3.17-26.83l.55-4.3-48.41,1.63-.51,3c-4.12,23.9-.67,43.22,10,55.88,9.4,11.16,23.72,16.82,42.54,16.82,39.57,0,72.24-26.55,81.31-66.07,6-26.28,0-48.38-20-73.85L244.53,98.15l-.68-.89c-8.7-11.27-17.69-22.93-15.06-34.37,2.87-12.51,11.07-20.28,21.4-20.28,4,0,6.93,1,8.84,3.2,3.52,4,4.4,12.08,2.76,25.47l-.52,4.29,45.92-1.64.55-2.9c4.69-24.86,2-43.58-8-55.66C291.26,5.17,278,0,260.34,0Z"/><polygon class="cls-2" points="465.92 48.48 476.09 4.15 331.75 4.15 321.57 48.48 368.2 48.48 320.17 257.79 371.61 257.79 419.64 48.48 465.92 48.48"/><path class="cls-2" d="M410.72,257.79h48.49L484,198h44.47l-2.31,59.75h51.26l8.84-254H520.58ZM502,155.42l32.53-79.63L530,155.42Z"/><path class="cls-2" d="M772.69,22.68C763.17,10.73,746.1,4.15,724.63,4.15h-71l-58.2,253.64h72c42.08,0,73.82-24.39,82.82-63.66L779.66,66C783.69,48.44,781.28,33.46,772.69,22.68ZM672.19,213.11H656.44l37.7-164.28h17.09c6.77,0,11.54,1.69,14.2,5,3.36,4.21,2.83,10.47,1.79,15L699.41,190.07C696.85,201.2,688.36,213.11,672.19,213.11Z"/><polygon class="cls-2" points="818.39 4.15 760.19 257.79 811.28 257.79 869.48 4.15 818.39 4.15"/><path class="cls-2" d="M1016.56,19.73C1006.46,7.05,989.17.35,966.57.35,923,.35,888.79,27,879.34,68.14L851,191.79c-4.94,21.51-2.56,38.54,7.06,50.62,9.81,12.32,27.1,18.83,50,18.83,44.21,0,77.73-26.38,87.47-68.83l28.45-124C1028.63,48.13,1026.13,31.75,1016.56,19.73ZM917.19,215.52c-6,0-10.39-1.65-13-4.91-2.89-3.63-3.6-9.48-2-16.48L931.14,68.07C934.4,53.86,944,45.72,957.5,45.72c4.32,0,10.15.87,13.43,5,2.7,3.39,3.35,8.58,1.88,15L943.72,192.48C941.16,203.62,932.85,215.52,917.19,215.52Z"/><polygon class="cls-2" points="1437.91 3.31 1093.32 3.31 1013.17 353.55 1357.76 353.55 1437.91 3.31"/><polygon class="cls-3" points="1191.58 50.43 1350.19 179.19 1121.69 307.95 1191.58 50.43"/><polygon class="cls-2" points="986.2 353.55 868.04 353.55 838.49 482.66 956.65 482.66 986.2 353.55"/></g></g></svg>
